<?xml version="1.0" ?><svg height="512pt" viewBox="0 -26 512.001 512" width="512pt" xmlns="http://www.w3.org/2000/svg"><g fill-rule="evenodd"><path d="m256 50v80h246l-46-80zm0 0" fill="#ff9d21"/><path d="m256 130h246v40.003906h-246zm0 0" fill="#ff9d21"/><path d="m161 10h295v40h-295zm0 0" fill="#54ba9d"/><path d="m161 50-46 80h141v-80zm0 0" fill="#ff9d21"/><path d="m115 130h141v40.003906h-141zm0 0" fill="#ff9d21"/><path d="m356 170.003906h-198v120.773438c20.351562-26.597656 49.164062-46.3125 82.566406-55.265625l39.921875 148.976562-120-32.152343-2.488281-.667969v98.335937l198-.003906zm0 0" fill="#ffdaae"/><path d="m240.566406 235.511719c-16.433594 4.40625-31.753906 11.421875-45.503906 20.570312-16.359375 17.933594-28.539062 39.753907-35.039062 64.003907l12.3125 3.296874c10.234374-18.105468 24.839843-33.351562 42.445312-44.328124 8.707031-10.132813 19.019531-18.828126 30.5625-25.71875zm0 0" fill="#bf9a94"/><path d="m189.003906 327.847656 50.160156 13.441406 32.050782 8.585938-8.699219-32.453125-14.183594-52.933594c-12.011719 3.21875-23.289062 8.167969-33.550781 14.566407-11.945312 13.902343-20.871094 30.488281-25.777344 48.792968zm0 0" fill="#ff5a5a"/><path d="m356 170.003906h100v80h-100zm0 0" fill="#96c8eb"/><path d="m456 250.003906h-100v199.996094l96.800781.003906h3.199219zm0 0" fill="#96c8eb"/></g><path d="m511.996094 129.902344c-.003906-.222656-.015625-.4375-.035156-.65625-.007813-.117188-.011719-.230469-.023438-.34375-.023438-.199219-.058594-.398438-.089844-.597656-.023437-.132813-.042968-.265626-.070312-.398438-.035156-.160156-.078125-.316406-.121094-.476562-.046875-.167969-.085938-.332032-.136719-.496094-.039062-.121094-.089843-.238282-.132812-.359375-.074219-.195313-.144531-.390625-.226563-.578125-.042968-.101563-.09375-.199219-.144531-.296875-.09375-.203125-.195313-.40625-.304687-.601563-.015626-.027344-.027344-.054687-.042969-.082031l-44.667969-77.6875v-37.328125c0-5.523438-4.476562-10-10-10h-400c-5.523438 0-10 4.476562-10 10v37.328125l-44.667969 77.6875c-.011719.019531-.019531.042969-.03125.0625-.128906.226563-.242187.457031-.351562.691406-.03125.066407-.066407.136719-.097657.203125-.101562.226563-.1875.457032-.269531.691406-.03125.082032-.066406.164063-.09375.25-.0625.203126-.117187.410157-.171875.617188-.027344.117188-.0625.234375-.089844.351562-.035156.171876-.0625.347657-.089843.523438-.023438.15625-.0546878.3125-.0703128.46875-.015625.152344-.0234374.304688-.0351562.460938-.0117188.179687-.0234375.359374-.0234375.539062 0 .042969-.0078125.082031-.0078125.125v40c0 5.519531 4.476562 10 10 10h36v260h-7.03125c-5.523438 0-10 4.476562-10 10 0 5.519531 4.476562 10 10 10h16.953125c.027344 0 .050781.003906.078125.003906h417.03125c5.523438 0 10-4.480468 10-10 0-5.523437-4.476562-10-10-10h-7.03125v-260.003906h36c5.523438 0 10-4.480469 10-10v-40c0-.035156-.003906-.066406-.003906-.097656zm-450.210938-69.902344h184.21875v60h-218.71875zm204.21875 0h184.210938l34.5 60h-218.710938zm-200.003906-40h380v20h-380zm-46 120h226.003906v20h-226.003906zm68.855469 40v9.996094c0 5.523437 4.480469 10 10 10 5.523437 0 10-4.476563 10-10v-9.996094h22.859375v9.996094c0 5.523437 4.476562 10 10 10 5.519531 0 10-4.476563 10-10v-9.996094h22.855468v9.996094c0 5.523437 4.476563 10 10 10 5.523438 0 10-4.476563 10-10v-9.996094h22.859376v9.996094c0 5.523437 4.476562 10 10 10 5.519531 0 10-4.476563 10-10v-9.996094h22.855468v9.996094c0 5.523437 4.476563 10 10 10 5.523438 0 10-4.476563 10-10v-9.996094h22.855469v9.996094c0 5.523437 4.476563 10 10 10s10-4.476563 10-10v-9.996094h22.859375v260.003906h-280v-260.003906zm277.148437 260.003906v-80.003906h10c5.523438 0 10-4.480469 10-10 0-5.523438-4.476562-10-10-10h-10v-80l79.996094.003906v180zm79.996094-200-79.996094-.003906v-60h79.996094zm46-80.003906h-225.996094v-20h225.996094zm0 0" fill="#000001"/><path d="m10.238281 440h-.238281c-5.523438 0-10 4.476562-10 10 0 5.519531 4.476562 10 10 10h.238281c5.519531 0 10-4.480469 10-10 0-5.523438-4.476562-10-10-10zm0 0" fill="#000001"/><path d="m502 440.003906h-.234375c-5.523437 0-10 4.476563-10 10 0 5.519532 4.476563 10 10 10h.234375c5.523438 0 10-4.480468 10-10 0-5.523437-4.476562-10-10-10zm0 0" fill="#000001"/><path d="m128.925781 354.226562 28.976563 7.769532c.019531.003906.039062.003906.0625.011718l119.9375 32.140626c.855468.230468 1.722656.339843 2.585937.339843h.113281c5.480469-.046875 9.90625-4.507812 9.90625-10 0-1.125-.183593-2.210937-.53125-3.222656l-31.980468-119.363281c0-.011719-.003906-.019532-.007813-.03125l-7.757812-28.945313c-1.429688-5.335937-6.914063-8.5-12.25-7.070312-56.488281 15.140625-100.988281 59.636719-116.125 116.125-1.429688 5.332031 1.734375 10.816406 7.070312 12.246093zm91.523438 3.820313-.71875-27.265625c-.144531-5.519531-4.703125-9.898438-10.261719-9.734375-5.519531.148437-9.878906 4.738281-9.730469 10.261719l.5625 21.335937-27.136719-7.269531c11.539063-31.597656 36.617188-56.675781 68.214844-68.214844l9.886719 36.898438-13.273437 11.851562c-4.117188 3.675782-4.476563 10-.796876 14.117188 1.976563 2.214844 4.710938 3.339844 7.460938 3.339844 2.371094 0 4.75-.835938 6.65625-2.539063l5.75-5.132813 9.285156 34.648438zm13.140625-109.949219 2.597656 9.695313c-38.457031 13.472656-68.921875 43.9375-82.390625 82.394531l-9.699219-2.601562c14.429688-41.882813 47.605469-75.058594 89.492188-89.488282zm0 0" fill="#000001"/></svg>